<?xml version="1.0" encoding="utf-8"?>
<COLLADA xmlns="http://www.collada.org/2005/11/COLLADASchema" version="1.4.1" xmlns:xsi="http://www.w3.org/2001/XMLSchema-instance">
  <asset>
    <contributor>
      <author>Blender User</author>
      <authoring_tool>Blender 4.1.0 commit date:2024-03-25, commit time:20:42, hash:40a5e739e270</authoring_tool>
    </contributor>
    <created>2025-11-09T20:45:07</created>
    <modified>2025-11-09T20:45:07</modified>
    <unit name="meter" meter="1"/>
    <up_axis>Z_UP</up_axis>
  </asset>
  <library_effects/>
  <library_images/>
  <library_geometries>
    <geometry id="Cylinder_001-mesh" name="Cylinder.001">
      <mesh>
        <source id="Cylinder_001-mesh-positions">
          <float_array id="Cylinder_001-mesh-positions-array" count="192">0 0.9142954 -0.5143309 0 0.9142954 0.3717137 0.1784939 0.8967275 -0.5143309 0.1784939 0.8967275 0.3717137 0.3501284 0.8446988 -0.5143309 0.3501284 0.8446988 0.3717137 0.5083076 0.7602088 -0.5143309 0.5083076 0.7602088 0.3717137 0.6469529 0.6465045 -0.5143309 0.6469529 0.6465045 0.3717137 0.7607361 0.5079553 -0.5143309 0.7607361 0.5079553 0.3717137 0.8452847 0.3498857 -0.5143309 0.8452847 0.3498857 0.3717137 0.8973494 0.1783701 -0.5143309 0.8973494 0.1783701 0.3717137 0.9149296 0 -0.5143309 0.9149296 0 0.3717137 0.8973494 -0.1783701 -0.5143309 0.8973494 -0.1783701 0.3717137 0.8452847 -0.3498857 -0.5143309 0.8452847 -0.3498857 0.3717137 0.7607361 -0.5079553 -0.5143309 0.7607361 -0.5079553 0.3717137 0.6469529 -0.6465045 -0.5143309 0.6469529 -0.6465045 0.3717137 0.5083076 -0.7602088 -0.5143309 0.5083076 -0.7602088 0.3717137 0.3501284 -0.8446988 -0.5143309 0.3501284 -0.8446988 0.3717137 0.1784939 -0.8967275 -0.5143309 0.1784939 -0.8967275 0.3717137 0 -0.9142954 -0.5143309 0 -0.9142954 0.3717137 -0.1784939 -0.8967275 -0.5143309 -0.1784939 -0.8967275 0.3717137 -0.3501284 -0.8446988 -0.5143309 -0.3501284 -0.8446988 0.3717137 -0.5083076 -0.7602088 -0.5143309 -0.5083076 -0.7602088 0.3717137 -0.6469529 -0.6465045 -0.5143309 -0.6469529 -0.6465045 0.3717137 -0.7607361 -0.5079553 -0.5143309 -0.7607361 -0.5079553 0.3717137 -0.8452847 -0.3498857 -0.5143309 -0.8452847 -0.3498857 0.3717137 -0.8973494 -0.1783701 -0.5143309 -0.8973494 -0.1783701 0.3717137 -0.9149296 0 -0.5143309 -0.9149296 0 0.3717137 -0.8973494 0.1783701 -0.5143309 -0.8973494 0.1783701 0.3717137 -0.8452847 0.3498857 -0.5143309 -0.8452847 0.3498857 0.3717137 -0.7607361 0.5079553 -0.5143309 -0.7607361 0.5079553 0.3717137 -0.6469529 0.6465045 -0.5143309 -0.6469529 0.6465045 0.3717137 -0.5083076 0.7602088 -0.5143309 -0.5083076 0.7602088 0.3717137 -0.3501284 0.8446988 -0.5143309 -0.3501284 0.8446988 0.3717137 -0.1784939 0.8967275 -0.5143309 -0.1784939 0.8967275 0.3717137</float_array>
          <technique_common>
            <accessor source="#Cylinder_001-mesh-positions-array" count="64" stride="3">
              <param name="X" type="float"/>
              <param name="Y" type="float"/>
              <param name="Z" type="float"/>
            </accessor>
          </technique_common>
        </source>
        <source id="Cylinder_001-mesh-normals">
          <float_array id="Cylinder_001-mesh-normals-array" count="372">0.09794986 0.9951914 0 0.2901003 0.9569963 0 0.4711428 0.882057 0 0.6341304 0.7732262 0 0.7727946 0.6346562 0 0.8817855 0.4716508 0 0.9568844 0.2904692 0 0.9951781 0.09808462 0 0.9951781 -0.09808462 0 0.9568844 -0.2904692 0 0.8817855 -0.4716508 0 0.7727946 -0.6346562 0 0.6341304 -0.7732262 0 0.4711428 -0.882057 0 0.2901003 -0.9569963 0 0.09794986 -0.9951914 0 -0.09794986 -0.9951914 0 -0.2901003 -0.9569963 0 -0.4711428 -0.882057 0 -0.6341304 -0.7732262 0 -0.7727946 -0.6346562 0 -0.8817855 -0.4716508 0 -0.9568844 -0.2904692 0 -0.9951781 -0.09808462 0 -0.9951781 0.09808462 0 -0.9568844 0.2904692 0 -0.8817855 0.4716508 0 -0.7727946 0.6346562 0 -0.6341304 0.7732262 0 -0.4711428 0.882057 0 0 0 1 -0.2901003 0.9569963 0 -0.09794986 0.9951914 0 0 0 -1 0.09794986 0.9951914 0 0.2901003 0.9569963 0 0.4711428 0.882057 0 0.6341304 0.7732262 0 0.7727946 0.6346562 0 0.8817855 0.4716508 0 0.9568844 0.2904692 0 0.9951781 0.09808462 0 0.9951781 -0.09808462 0 0.9568844 -0.2904692 0 0.8817855 -0.4716508 0 0.7727946 -0.6346562 0 0.6341304 -0.7732262 0 0.4711428 -0.882057 0 0.2901003 -0.9569963 0 0.09794986 -0.9951914 0 -0.09794986 -0.9951914 0 -0.2901003 -0.9569963 0 -0.4711428 -0.882057 0 -0.6341304 -0.7732262 0 -0.7727946 -0.6346562 0 -0.8817855 -0.4716508 0 -0.9568844 -0.2904692 0 -0.9951781 -0.09808462 0 -0.9951781 0.09808462 0 -0.9568844 0.2904692 0 -0.8817855 0.4716508 0 -0.7727946 0.6346562 0 -0.6341304 0.7732262 0 -0.4711428 0.882057 0 0 0 1 0 0 1 0 0 1 0 0 1 0 0 1 0 0 1 0 0 1 0 0 1 0 0 1 0 0 1 0 0 1 0 0 1 0 0 1 0 0 1 0 0 1 0 0 1 0 0 1 0 0 1 0 0 1 0 0 1 0 0 1 0 0 1 0 0 1 0 0 1 0 0 1 0 0 1 0 0 1 0 0 1 0 0 1 -0.2901003 0.9569963 0 -0.09794986 0.9951914 0 0 0 -1 0 0 -1 0 0 -1 0 0 -1 0 0 -1 0 0 -1 0 0 -1 0 0 -1 0 0 -1 0 0 -1 0 0 -1 0 0 -1 0 0 -1 0 0 -1 0 0 -1 0 0 -1 0 0 -1 0 0 -1 0 0 -1 0 0 -1 0 0 -1 0 0 -1 0 0 -1 0 0 -1 0 0 -1 0 0 -1 0 0 -1 0 0 -1 0 0 -1</float_array>
          <technique_common>
            <accessor source="#Cylinder_001-mesh-normals-array" count="124" stride="3">
              <param name="X" type="float"/>
              <param name="Y" type="float"/>
              <param name="Z" type="float"/>
            </accessor>
          </technique_common>
        </source>
        <source id="Cylinder_001-mesh-map-0">
          <float_array id="Cylinder_001-mesh-map-0-array" count="744">1 1 0.96875 0.5 1 0.5 0.96875 1 0.9375 0.5 0.96875 0.5 0.9375 1 0.90625 0.5 0.9375 0.5 0.90625 1 0.875 0.5 0.90625 0.5 0.875 1 0.84375 0.5 0.875 0.5 0.84375 1 0.8125 0.5 0.84375 0.5 0.8125 1 0.78125 0.5 0.8125 0.5 0.78125 1 0.75 0.5 0.78125 0.5 0.75 1 0.71875 0.5 0.75 0.5 0.71875 1 0.6875 0.5 0.71875 0.5 0.6875 1 0.65625 0.5 0.6875 0.5 0.65625 1 0.625 0.5 0.65625 0.5 0.625 1 0.59375 0.5 0.625 0.5 0.59375 1 0.5625 0.5 0.59375 0.5 0.5625 1 0.53125 0.5 0.5625 0.5 0.53125 1 0.5 0.5 0.53125 0.5 0.5 1 0.46875 0.5 0.5 0.5 0.46875 1 0.4375 0.5 0.46875 0.5 0.4375 1 0.40625 0.5 0.4375 0.5 0.40625 1 0.375 0.5 0.40625 0.5 0.375 1 0.34375 0.5 0.375 0.5 0.34375 1 0.3125 0.5 0.34375 0.5 0.3125 1 0.28125 0.5 0.3125 0.5 0.28125 1 0.25 0.5 0.28125 0.5 0.25 1 0.21875 0.5 0.25 0.5 0.21875 1 0.1875 0.5 0.21875 0.5 0.1875 1 0.15625 0.5 0.1875 0.5 0.15625 1 0.125 0.5 0.15625 0.5 0.125 1 0.09375 0.5 0.125 0.5 0.09375 1 0.0625 0.5 0.09375 0.5 0.4197056 0.4197056 0.3833369 0.4495527 0.4197056 0.08029437 0.0625 1 0.03125 0.5 0.0625 0.5 0.03125 1 0 0.5 0.03125 0.5 0.6166632 0.4495527 0.658156 0.4717311 0.6166632 0.05044728 1 1 0.96875 1 0.96875 0.5 0.96875 1 0.9375 1 0.9375 0.5 0.9375 1 0.90625 1 0.90625 0.5 0.90625 1 0.875 1 0.875 0.5 0.875 1 0.84375 1 0.84375 0.5 0.84375 1 0.8125 1 0.8125 0.5 0.8125 1 0.78125 1 0.78125 0.5 0.78125 1 0.75 1 0.75 0.5 0.75 1 0.71875 1 0.71875 0.5 0.71875 1 0.6875 1 0.6875 0.5 0.6875 1 0.65625 1 0.65625 0.5 0.65625 1 0.625 1 0.625 0.5 0.625 1 0.59375 1 0.59375 0.5 0.59375 1 0.5625 1 0.5625 0.5 0.5625 1 0.53125 1 0.53125 0.5 0.53125 1 0.5 1 0.5 0.5 0.5 1 0.46875 1 0.46875 0.5 0.46875 1 0.4375 1 0.4375 0.5 0.4375 1 0.40625 1 0.40625 0.5 0.40625 1 0.375 1 0.375 0.5 0.375 1 0.34375 1 0.34375 0.5 0.34375 1 0.3125 1 0.3125 0.5 0.3125 1 0.28125 1 0.28125 0.5 0.28125 1 0.25 1 0.25 0.5 0.25 1 0.21875 1 0.21875 0.5 0.21875 1 0.1875 1 0.1875 0.5 0.1875 1 0.15625 1 0.15625 0.5 0.15625 1 0.125 1 0.125 0.5 0.125 1 0.09375 1 0.09375 0.5 0.09375 1 0.0625 1 0.0625 0.5 0.341844 0.4717311 0.2968217 0.4853885 0.2968217 0.01461154 0.2968217 0.4853885 0.25 0.49 0.25 0.00999999 0.25 0.49 0.2031783 0.4853885 0.2031783 0.01461154 0.2031783 0.4853885 0.1581559 0.4717311 0.1581559 0.02826887 0.1581559 0.4717311 0.1166631 0.4495527 0.1581559 0.02826887 0.1166631 0.4495527 0.08029437 0.4197056 0.1166631 0.05044728 0.1581559 0.02826887 0.1166631 0.4495527 0.1166631 0.05044728 0.08029437 0.4197056 0.05044728 0.3833369 0.08029437 0.08029437 0.05044728 0.3833369 0.02826887 0.341844 0.05044728 0.1166631 0.08029437 0.08029437 0.05044728 0.3833369 0.05044728 0.1166631 0.02826887 0.341844 0.01461154 0.2968217 0.02826887 0.1581559 0.01461154 0.2968217 0.00999999 0.25 0.02826887 0.1581559 0.00999999 0.25 0.01461154 0.2031783 0.02826887 0.1581559 0.02826887 0.1581559 0.05044728 0.1166631 0.02826887 0.341844 0.08029437 0.08029437 0.1166631 0.05044728 0.08029437 0.4197056 0.1581559 0.02826887 0.2031783 0.01461154 0.2031783 0.4853885 0.2031783 0.01461154 0.25 0.00999999 0.25 0.49 0.25 0.00999999 0.2968217 0.01461154 0.2968217 0.4853885 0.2968217 0.01461154 0.341844 0.02826887 0.341844 0.4717311 0.341844 0.02826887 0.3833369 0.05044728 0.341844 0.4717311 0.3833369 0.05044728 0.4197056 0.08029437 0.3833369 0.4495527 0.341844 0.4717311 0.3833369 0.05044728 0.3833369 0.4495527 0.4197056 0.08029437 0.4495527 0.1166631 0.4197056 0.4197056 0.4495527 0.1166631 0.4717311 0.1581559 0.4495527 0.3833369 0.4197056 0.4197056 0.4495527 0.1166631 0.4495527 0.3833369 0.4717311 0.1581559 0.4853885 0.2031783 0.49 0.25 0.49 0.25 0.4853885 0.2968217 0.4717311 0.1581559 0.4853885 0.2968217 0.4717311 0.341844 0.4717311 0.1581559 0.4717311 0.341844 0.4495527 0.3833369 0.4717311 0.1581559 0.0625 1 0.03125 1 0.03125 0.5 0.03125 1 0 1 0 0.5 0.7031784 0.4853885 0.75 0.49 0.75 0.00999999 0.75 0.49 0.7968217 0.4853885 0.7968217 0.01461154 0.7968217 0.4853885 0.841844 0.4717311 0.7968217 0.01461154 0.841844 0.4717311 0.8833369 0.4495527 0.841844 0.02826887 0.7968217 0.01461154 0.841844 0.4717311 0.841844 0.02826887 0.8833369 0.4495527 0.9197056 0.4197056 0.9197056 0.08029437 0.9197056 0.4197056 0.9495527 0.3833369 0.9495527 0.1166631 0.9495527 0.3833369 0.9717311 0.341844 0.9495527 0.1166631 0.9717311 0.341844 0.9853885 0.2968217 0.9495527 0.1166631 0.9853885 0.2968217 0.99 0.25 0.9853885 0.2031783 0.9853885 0.2031783 0.9717311 0.1581559 0.9853885 0.2968217 0.9717311 0.1581559 0.9495527 0.1166631 0.9853885 0.2968217 0.9495527 0.1166631 0.9197056 0.08029437 0.9197056 0.4197056 0.9197056 0.08029437 0.8833369 0.05044728 0.8833369 0.4495527 0.8833369 0.05044728 0.841844 0.02826887 0.8833369 0.4495527 0.7968217 0.01461154 0.75 0.00999999 0.75 0.49 0.75 0.00999999 0.7031784 0.01461154 0.7031784 0.4853885 0.7031784 0.01461154 0.658156 0.02826887 0.7031784 0.4853885 0.658156 0.02826887 0.6166632 0.05044728 0.658156 0.4717311 0.7031784 0.4853885 0.658156 0.02826887 0.658156 0.4717311 0.6166632 0.05044728 0.5802944 0.08029437 0.5802944 0.4197056 0.5802944 0.08029437 0.5504473 0.1166631 0.5504473 0.3833369 0.5504473 0.1166631 0.5282689 0.1581559 0.5504473 0.3833369 0.5282689 0.1581559 0.5146116 0.2031783 0.5504473 0.3833369 0.5146116 0.2031783 0.51 0.25 0.5146116 0.2968217 0.5146116 0.2968217 0.5282689 0.341844 0.5146116 0.2031783 0.5282689 0.341844 0.5504473 0.3833369 0.5146116 0.2031783 0.5504473 0.3833369 0.5802944 0.4197056 0.5802944 0.08029437 0.5802944 0.4197056 0.6166632 0.4495527 0.6166632 0.05044728</float_array>
          <technique_common>
            <accessor source="#Cylinder_001-mesh-map-0-array" count="372" stride="2">
              <param name="S" type="float"/>
              <param name="T" type="float"/>
            </accessor>
          </technique_common>
        </source>
        <vertices id="Cylinder_001-mesh-vertices">
          <input semantic="POSITION" source="#Cylinder_001-mesh-positions"/>
        </vertices>
        <triangles count="124">
          <input semantic="VERTEX" source="#Cylinder_001-mesh-vertices" offset="0"/>
          <input semantic="NORMAL" source="#Cylinder_001-mesh-normals" offset="1"/>
          <input semantic="TEXCOORD" source="#Cylinder_001-mesh-map-0" offset="2" set="0"/>
          <p>1 0 0 2 0 1 0 0 2 3 1 3 4 1 4 2 1 5 5 2 6 6 2 7 4 2 8 7 3 9 8 3 10 6 3 11 9 4 12 10 4 13 8 4 14 11 5 15 12 5 16 10 5 17 13 6 18 14 6 19 12 6 20 15 7 21 16 7 22 14 7 23 17 8 24 18 8 25 16 8 26 19 9 27 20 9 28 18 9 29 21 10 30 22 10 31 20 10 32 23 11 33 24 11 34 22 11 35 25 12 36 26 12 37 24 12 38 27 13 39 28 13 40 26 13 41 29 14 42 30 14 43 28 14 44 31 15 45 32 15 46 30 15 47 33 16 48 34 16 49 32 16 50 35 17 51 36 17 52 34 17 53 37 18 54 38 18 55 36 18 56 39 19 57 40 19 58 38 19 59 41 20 60 42 20 61 40 20 62 43 21 63 44 21 64 42 21 65 45 22 66 46 22 67 44 22 68 47 23 69 48 23 70 46 23 71 49 24 72 50 24 73 48 24 74 51 25 75 52 25 76 50 25 77 53 26 78 54 26 79 52 26 80 55 27 81 56 27 82 54 27 83 57 28 84 58 28 85 56 28 86 59 29 87 60 29 88 58 29 89 9 30 90 7 30 91 25 30 92 61 31 93 62 31 94 60 31 95 63 32 96 0 32 97 62 32 98 58 33 99 60 33 100 38 33 101 1 34 102 3 34 103 2 34 104 3 35 105 5 35 106 4 35 107 5 36 108 7 36 109 6 36 110 7 37 111 9 37 112 8 37 113 9 38 114 11 38 115 10 38 116 11 39 117 13 39 118 12 39 119 13 40 120 15 40 121 14 40 122 15 41 123 17 41 124 16 41 125 17 42 126 19 42 127 18 42 128 19 43 129 21 43 130 20 43 131 21 44 132 23 44 133 22 44 134 23 45 135 25 45 136 24 45 137 25 46 138 27 46 139 26 46 140 27 47 141 29 47 142 28 47 143 29 48 144 31 48 145 30 48 146 31 49 147 33 49 148 32 49 149 33 50 150 35 50 151 34 50 152 35 51 153 37 51 154 36 51 155 37 52 156 39 52 157 38 52 158 39 53 159 41 53 160 40 53 161 41 54 162 43 54 163 42 54 164 43 55 165 45 55 166 44 55 167 45 56 168 47 56 169 46 56 170 47 57 171 49 57 172 48 57 173 49 58 174 51 58 175 50 58 176 51 59 177 53 59 178 52 59 179 53 60 180 55 60 181 54 60 182 55 61 183 57 61 184 56 61 185 57 62 186 59 62 187 58 62 188 59 63 189 61 63 190 60 63 191 5 64 192 3 64 193 31 64 194 3 65 195 1 65 196 33 65 197 1 66 198 63 66 199 35 66 200 63 67 201 61 67 202 37 67 203 61 68 204 59 68 205 37 68 206 59 69 207 57 69 208 39 69 209 37 70 210 59 70 211 39 70 212 57 71 213 55 71 214 41 71 215 55 72 216 53 72 217 43 72 218 41 73 219 55 73 220 43 73 221 53 74 222 51 74 223 45 74 224 51 75 225 49 75 226 45 75 227 49 76 228 47 76 229 45 76 230 45 77 231 43 77 232 53 77 233 41 78 234 39 78 235 57 78 236 37 79 237 35 79 238 63 79 239 35 80 240 33 80 241 1 80 242 33 81 243 31 81 244 3 81 245 31 82 246 29 82 247 5 82 248 29 83 249 27 83 250 5 83 251 27 84 252 25 84 253 7 84 254 5 85 255 27 85 256 7 85 257 25 86 258 23 86 259 9 86 260 23 87 261 21 87 262 11 87 263 9 88 264 23 88 265 11 88 266 21 89 267 19 89 268 17 89 269 17 90 270 15 90 271 21 90 272 15 91 273 13 91 274 21 91 275 13 92 276 11 92 277 21 92 278 61 93 279 63 93 280 62 93 281 63 94 282 1 94 283 0 94 284 62 95 285 0 95 286 32 95 287 0 96 288 2 96 289 30 96 290 2 97 291 4 97 292 30 97 293 4 98 294 6 98 295 28 98 296 30 99 297 4 99 298 28 99 299 6 100 300 8 100 301 24 100 302 8 101 303 10 101 304 22 101 305 10 102 306 12 102 307 22 102 308 12 103 309 14 103 310 22 103 311 14 104 312 16 104 313 18 104 314 18 105 315 20 105 316 14 105 317 20 106 318 22 106 319 14 106 320 22 107 321 24 107 322 8 107 323 24 108 324 26 108 325 6 108 326 26 109 327 28 109 328 6 109 329 30 110 330 32 110 331 0 110 332 32 111 333 34 111 334 62 111 335 34 112 336 36 112 337 62 112 338 36 113 339 38 113 340 60 113 341 62 114 342 36 114 343 60 114 344 38 115 345 40 115 346 56 115 347 40 116 348 42 116 349 54 116 350 42 117 351 44 117 352 54 117 353 44 118 354 46 118 355 54 118 356 46 119 357 48 119 358 50 119 359 50 120 360 52 120 361 46 120 362 52 121 363 54 121 364 46 121 365 54 122 366 56 122 367 40 122 368 56 123 369 58 123 370 38 123 371</p>
        </triangles>
      </mesh>
    </geometry>
  </library_geometries>
  <library_visual_scenes>
    <visual_scene id="Scene" name="Scene">
      <node id="Cylinder" name="Cylinder" type="NODE">
        <matrix sid="transform">1 0 0 0 0 1 0 0 0 0 1 0 0 0 0 1</matrix>
        <instance_geometry url="#Cylinder_001-mesh" name="Cylinder"/>
      </node>
    </visual_scene>
  </library_visual_scenes>
  <scene>
    <instance_visual_scene url="#Scene"/>
  </scene>
</COLLADA>